<mxfile host="app.diagrams.net" modified="2023-10-30T01:23:50.142Z" agent="Mozilla/5.0 (Windows NT 10.0; Win64; x64) AppleWebKit/537.36 (KHTML, like Gecko) Chrome/118.0.0.0 Safari/537.36" etag="Uy97wbCXrs57kXsLEv8u" version="22.0.8" type="device">
  <diagram name="Page-1" id="fI9IOLnK3MJ7q-kyJ_SI">
    <mxGraphModel dx="1214" dy="698" grid="1" gridSize="10" guides="1" tooltips="1" connect="1" arrows="1" fold="1" page="1" pageScale="1" pageWidth="1200" pageHeight="1920" math="0" shadow="0">
      <root>
        <mxCell id="0" />
        <mxCell id="1" parent="0" />
        <mxCell id="jWws2KSP2f3LH1VrT5zD-75" value="Server Zone" style="rounded=0;whiteSpace=wrap;html=1;fillColor=#99CCFF;align=left;verticalAlign=top;spacingTop=4;spacingLeft=4;fontSize=18;fontFamily=Roboto;fontSource=https%3A%2F%2Ffonts.googleapis.com%2Fcss%3Ffamily%3DRoboto;fontStyle=1" vertex="1" parent="1">
          <mxGeometry x="300" width="790" height="600" as="geometry" />
        </mxCell>
        <mxCell id="jWws2KSP2f3LH1VrT5zD-74" value="User Zone" style="rounded=0;whiteSpace=wrap;html=1;fillColor=#99FF99;verticalAlign=top;align=left;spacingTop=4;spacingLeft=4;fontSize=18;fontFamily=Roboto;fontSource=https%3A%2F%2Ffonts.googleapis.com%2Fcss%3Ffamily%3DRoboto;fontStyle=1" vertex="1" parent="1">
          <mxGeometry x="1090" width="160" height="600" as="geometry" />
        </mxCell>
        <mxCell id="jWws2KSP2f3LH1VrT5zD-73" value="User Zone" style="rounded=0;whiteSpace=wrap;html=1;fillColor=#99FF99;align=left;verticalAlign=top;spacingTop=4;spacingLeft=4;fontSize=18;fontFamily=Roboto;fontSource=https%3A%2F%2Ffonts.googleapis.com%2Fcss%3Ffamily%3DRoboto;fontStyle=1" vertex="1" parent="1">
          <mxGeometry x="140" width="160" height="600" as="geometry" />
        </mxCell>
        <mxCell id="jWws2KSP2f3LH1VrT5zD-1" value="User Input" style="rounded=0;whiteSpace=wrap;html=1;fontFamily=Roboto;fontSource=https%3A%2F%2Ffonts.googleapis.com%2Fcss%3Ffamily%3DRoboto;" vertex="1" parent="1">
          <mxGeometry x="160" y="250" width="120" height="60" as="geometry" />
        </mxCell>
        <mxCell id="jWws2KSP2f3LH1VrT5zD-36" style="edgeStyle=orthogonalEdgeStyle;rounded=0;orthogonalLoop=1;jettySize=auto;html=1;exitX=1;exitY=0.5;exitDx=0;exitDy=0;entryX=0;entryY=0.5;entryDx=0;entryDy=0;fontFamily=Roboto;fontSource=https%3A%2F%2Ffonts.googleapis.com%2Fcss%3Ffamily%3DRoboto;" edge="1" parent="1" source="jWws2KSP2f3LH1VrT5zD-2" target="jWws2KSP2f3LH1VrT5zD-9">
          <mxGeometry relative="1" as="geometry" />
        </mxCell>
        <mxCell id="jWws2KSP2f3LH1VrT5zD-37" style="edgeStyle=orthogonalEdgeStyle;rounded=0;orthogonalLoop=1;jettySize=auto;html=1;exitX=1;exitY=0.5;exitDx=0;exitDy=0;entryX=0;entryY=0.5;entryDx=0;entryDy=0;fontFamily=Roboto;fontSource=https%3A%2F%2Ffonts.googleapis.com%2Fcss%3Ffamily%3DRoboto;" edge="1" parent="1" source="jWws2KSP2f3LH1VrT5zD-2" target="jWws2KSP2f3LH1VrT5zD-12">
          <mxGeometry relative="1" as="geometry" />
        </mxCell>
        <mxCell id="jWws2KSP2f3LH1VrT5zD-38" style="edgeStyle=orthogonalEdgeStyle;rounded=0;orthogonalLoop=1;jettySize=auto;html=1;exitX=1;exitY=0.5;exitDx=0;exitDy=0;entryX=0;entryY=0.5;entryDx=0;entryDy=0;fontFamily=Roboto;fontSource=https%3A%2F%2Ffonts.googleapis.com%2Fcss%3Ffamily%3DRoboto;" edge="1" parent="1" source="jWws2KSP2f3LH1VrT5zD-2" target="jWws2KSP2f3LH1VrT5zD-8">
          <mxGeometry relative="1" as="geometry" />
        </mxCell>
        <mxCell id="jWws2KSP2f3LH1VrT5zD-2" value="Coordinator" style="rounded=0;whiteSpace=wrap;html=1;fontFamily=Roboto;fontSource=https%3A%2F%2Ffonts.googleapis.com%2Fcss%3Ffamily%3DRoboto;" vertex="1" parent="1">
          <mxGeometry x="480" y="250" width="120" height="60" as="geometry" />
        </mxCell>
        <mxCell id="jWws2KSP2f3LH1VrT5zD-29" style="edgeStyle=orthogonalEdgeStyle;rounded=0;orthogonalLoop=1;jettySize=auto;html=1;exitX=1;exitY=0.5;exitDx=0;exitDy=0;entryX=0;entryY=0.5;entryDx=0;entryDy=0;fontFamily=Roboto;fontSource=https%3A%2F%2Ffonts.googleapis.com%2Fcss%3Ffamily%3DRoboto;" edge="1" parent="1" source="jWws2KSP2f3LH1VrT5zD-3" target="jWws2KSP2f3LH1VrT5zD-4">
          <mxGeometry relative="1" as="geometry" />
        </mxCell>
        <mxCell id="jWws2KSP2f3LH1VrT5zD-30" style="edgeStyle=orthogonalEdgeStyle;rounded=0;orthogonalLoop=1;jettySize=auto;html=1;exitX=1;exitY=0.5;exitDx=0;exitDy=0;fontFamily=Roboto;fontSource=https%3A%2F%2Ffonts.googleapis.com%2Fcss%3Ffamily%3DRoboto;" edge="1" parent="1" source="jWws2KSP2f3LH1VrT5zD-3" target="jWws2KSP2f3LH1VrT5zD-2">
          <mxGeometry relative="1" as="geometry" />
        </mxCell>
        <mxCell id="jWws2KSP2f3LH1VrT5zD-31" style="edgeStyle=orthogonalEdgeStyle;rounded=0;orthogonalLoop=1;jettySize=auto;html=1;exitX=1;exitY=0.5;exitDx=0;exitDy=0;entryX=0;entryY=0.5;entryDx=0;entryDy=0;fontFamily=Roboto;fontSource=https%3A%2F%2Ffonts.googleapis.com%2Fcss%3Ffamily%3DRoboto;" edge="1" parent="1" source="jWws2KSP2f3LH1VrT5zD-3" target="jWws2KSP2f3LH1VrT5zD-5">
          <mxGeometry relative="1" as="geometry" />
        </mxCell>
        <mxCell id="jWws2KSP2f3LH1VrT5zD-3" value="Work Manager" style="rounded=0;whiteSpace=wrap;html=1;fontFamily=Roboto;fontSource=https%3A%2F%2Ffonts.googleapis.com%2Fcss%3Ffamily%3DRoboto;" vertex="1" parent="1">
          <mxGeometry x="320" y="250" width="120" height="60" as="geometry" />
        </mxCell>
        <mxCell id="jWws2KSP2f3LH1VrT5zD-39" style="edgeStyle=orthogonalEdgeStyle;rounded=0;orthogonalLoop=1;jettySize=auto;html=1;exitX=1;exitY=0.5;exitDx=0;exitDy=0;entryX=0;entryY=0.5;entryDx=0;entryDy=0;fontFamily=Roboto;fontSource=https%3A%2F%2Ffonts.googleapis.com%2Fcss%3Ffamily%3DRoboto;" edge="1" parent="1" source="jWws2KSP2f3LH1VrT5zD-4" target="jWws2KSP2f3LH1VrT5zD-10">
          <mxGeometry relative="1" as="geometry" />
        </mxCell>
        <mxCell id="jWws2KSP2f3LH1VrT5zD-40" style="edgeStyle=orthogonalEdgeStyle;rounded=0;orthogonalLoop=1;jettySize=auto;html=1;exitX=1;exitY=0.5;exitDx=0;exitDy=0;entryX=0;entryY=0.5;entryDx=0;entryDy=0;fontFamily=Roboto;fontSource=https%3A%2F%2Ffonts.googleapis.com%2Fcss%3Ffamily%3DRoboto;" edge="1" parent="1" source="jWws2KSP2f3LH1VrT5zD-4" target="jWws2KSP2f3LH1VrT5zD-6">
          <mxGeometry relative="1" as="geometry" />
        </mxCell>
        <mxCell id="jWws2KSP2f3LH1VrT5zD-41" style="edgeStyle=orthogonalEdgeStyle;rounded=0;orthogonalLoop=1;jettySize=auto;html=1;exitX=1;exitY=0.5;exitDx=0;exitDy=0;entryX=0;entryY=0.5;entryDx=0;entryDy=0;fontFamily=Roboto;fontSource=https%3A%2F%2Ffonts.googleapis.com%2Fcss%3Ffamily%3DRoboto;" edge="1" parent="1" source="jWws2KSP2f3LH1VrT5zD-4" target="jWws2KSP2f3LH1VrT5zD-7">
          <mxGeometry relative="1" as="geometry" />
        </mxCell>
        <mxCell id="jWws2KSP2f3LH1VrT5zD-4" value="Coordinator&lt;br&gt;" style="rounded=0;whiteSpace=wrap;html=1;fontFamily=Roboto;fontSource=https%3A%2F%2Ffonts.googleapis.com%2Fcss%3Ffamily%3DRoboto;" vertex="1" parent="1">
          <mxGeometry x="480" y="70" width="120" height="60" as="geometry" />
        </mxCell>
        <mxCell id="jWws2KSP2f3LH1VrT5zD-32" style="edgeStyle=orthogonalEdgeStyle;rounded=0;orthogonalLoop=1;jettySize=auto;html=1;exitX=1;exitY=0.5;exitDx=0;exitDy=0;entryX=0;entryY=0.5;entryDx=0;entryDy=0;fontFamily=Roboto;fontSource=https%3A%2F%2Ffonts.googleapis.com%2Fcss%3Ffamily%3DRoboto;" edge="1" parent="1" source="jWws2KSP2f3LH1VrT5zD-5" target="jWws2KSP2f3LH1VrT5zD-13">
          <mxGeometry relative="1" as="geometry" />
        </mxCell>
        <mxCell id="jWws2KSP2f3LH1VrT5zD-33" style="edgeStyle=orthogonalEdgeStyle;rounded=0;orthogonalLoop=1;jettySize=auto;html=1;exitX=1;exitY=0.5;exitDx=0;exitDy=0;entryX=0;entryY=0.5;entryDx=0;entryDy=0;fontFamily=Roboto;fontSource=https%3A%2F%2Ffonts.googleapis.com%2Fcss%3Ffamily%3DRoboto;" edge="1" parent="1" source="jWws2KSP2f3LH1VrT5zD-5" target="jWws2KSP2f3LH1VrT5zD-16">
          <mxGeometry relative="1" as="geometry" />
        </mxCell>
        <mxCell id="jWws2KSP2f3LH1VrT5zD-35" style="edgeStyle=orthogonalEdgeStyle;rounded=0;orthogonalLoop=1;jettySize=auto;html=1;exitX=1;exitY=0.5;exitDx=0;exitDy=0;entryX=0;entryY=0.5;entryDx=0;entryDy=0;fontFamily=Roboto;fontSource=https%3A%2F%2Ffonts.googleapis.com%2Fcss%3Ffamily%3DRoboto;" edge="1" parent="1" source="jWws2KSP2f3LH1VrT5zD-5" target="jWws2KSP2f3LH1VrT5zD-14">
          <mxGeometry relative="1" as="geometry" />
        </mxCell>
        <mxCell id="jWws2KSP2f3LH1VrT5zD-5" value="Coordinator" style="rounded=0;whiteSpace=wrap;html=1;fontFamily=Roboto;fontSource=https%3A%2F%2Ffonts.googleapis.com%2Fcss%3Ffamily%3DRoboto;" vertex="1" parent="1">
          <mxGeometry x="480" y="430" width="120" height="60" as="geometry" />
        </mxCell>
        <mxCell id="jWws2KSP2f3LH1VrT5zD-85" style="edgeStyle=orthogonalEdgeStyle;rounded=0;orthogonalLoop=1;jettySize=auto;html=1;exitX=1;exitY=0.5;exitDx=0;exitDy=0;entryX=0;entryY=0.5;entryDx=0;entryDy=0;fontFamily=Roboto;fontSource=https%3A%2F%2Ffonts.googleapis.com%2Fcss%3Ffamily%3DRoboto;" edge="1" parent="1" source="jWws2KSP2f3LH1VrT5zD-6" target="jWws2KSP2f3LH1VrT5zD-43">
          <mxGeometry relative="1" as="geometry" />
        </mxCell>
        <mxCell id="jWws2KSP2f3LH1VrT5zD-6" value="Queue Worker" style="rounded=0;whiteSpace=wrap;html=1;fontFamily=Roboto;fontSource=https%3A%2F%2Ffonts.googleapis.com%2Fcss%3Ffamily%3DRoboto;" vertex="1" parent="1">
          <mxGeometry x="640" y="80" width="120" height="40" as="geometry" />
        </mxCell>
        <mxCell id="jWws2KSP2f3LH1VrT5zD-86" style="edgeStyle=orthogonalEdgeStyle;rounded=0;orthogonalLoop=1;jettySize=auto;html=1;exitX=1;exitY=0.5;exitDx=0;exitDy=0;entryX=0;entryY=0.5;entryDx=0;entryDy=0;fontFamily=Roboto;fontSource=https%3A%2F%2Ffonts.googleapis.com%2Fcss%3Ffamily%3DRoboto;" edge="1" parent="1" source="jWws2KSP2f3LH1VrT5zD-7" target="jWws2KSP2f3LH1VrT5zD-43">
          <mxGeometry relative="1" as="geometry" />
        </mxCell>
        <mxCell id="jWws2KSP2f3LH1VrT5zD-7" value="Queue Worker" style="rounded=0;whiteSpace=wrap;html=1;fontFamily=Roboto;fontSource=https%3A%2F%2Ffonts.googleapis.com%2Fcss%3Ffamily%3DRoboto;" vertex="1" parent="1">
          <mxGeometry x="640" y="140" width="120" height="40" as="geometry" />
        </mxCell>
        <mxCell id="jWws2KSP2f3LH1VrT5zD-79" style="edgeStyle=orthogonalEdgeStyle;rounded=0;orthogonalLoop=1;jettySize=auto;html=1;exitX=1;exitY=0.5;exitDx=0;exitDy=0;entryX=0;entryY=0.5;entryDx=0;entryDy=0;fontFamily=Roboto;fontSource=https%3A%2F%2Ffonts.googleapis.com%2Fcss%3Ffamily%3DRoboto;" edge="1" parent="1" source="jWws2KSP2f3LH1VrT5zD-8" target="jWws2KSP2f3LH1VrT5zD-43">
          <mxGeometry relative="1" as="geometry" />
        </mxCell>
        <mxCell id="jWws2KSP2f3LH1VrT5zD-8" value="Queue Worker" style="rounded=0;whiteSpace=wrap;html=1;fontFamily=Roboto;fontSource=https%3A%2F%2Ffonts.googleapis.com%2Fcss%3Ffamily%3DRoboto;" vertex="1" parent="1">
          <mxGeometry x="640" y="200" width="120" height="40" as="geometry" />
        </mxCell>
        <mxCell id="jWws2KSP2f3LH1VrT5zD-76" style="edgeStyle=orthogonalEdgeStyle;rounded=0;orthogonalLoop=1;jettySize=auto;html=1;exitX=1;exitY=0.5;exitDx=0;exitDy=0;fontFamily=Roboto;fontSource=https%3A%2F%2Ffonts.googleapis.com%2Fcss%3Ffamily%3DRoboto;" edge="1" parent="1" source="jWws2KSP2f3LH1VrT5zD-9" target="jWws2KSP2f3LH1VrT5zD-43">
          <mxGeometry relative="1" as="geometry" />
        </mxCell>
        <mxCell id="jWws2KSP2f3LH1VrT5zD-9" value="Queue Worker" style="rounded=0;whiteSpace=wrap;html=1;fontFamily=Roboto;fontSource=https%3A%2F%2Ffonts.googleapis.com%2Fcss%3Ffamily%3DRoboto;" vertex="1" parent="1">
          <mxGeometry x="640" y="260" width="120" height="40" as="geometry" />
        </mxCell>
        <mxCell id="jWws2KSP2f3LH1VrT5zD-84" style="edgeStyle=orthogonalEdgeStyle;rounded=0;orthogonalLoop=1;jettySize=auto;html=1;exitX=1;exitY=0.5;exitDx=0;exitDy=0;entryX=0;entryY=0.5;entryDx=0;entryDy=0;fontFamily=Roboto;fontSource=https%3A%2F%2Ffonts.googleapis.com%2Fcss%3Ffamily%3DRoboto;" edge="1" parent="1" source="jWws2KSP2f3LH1VrT5zD-10" target="jWws2KSP2f3LH1VrT5zD-43">
          <mxGeometry relative="1" as="geometry">
            <mxPoint x="800" y="280" as="targetPoint" />
          </mxGeometry>
        </mxCell>
        <mxCell id="jWws2KSP2f3LH1VrT5zD-10" value="Queue Worker" style="rounded=0;whiteSpace=wrap;html=1;fontFamily=Roboto;fontSource=https%3A%2F%2Ffonts.googleapis.com%2Fcss%3Ffamily%3DRoboto;" vertex="1" parent="1">
          <mxGeometry x="640" y="20" width="120" height="40" as="geometry" />
        </mxCell>
        <mxCell id="jWws2KSP2f3LH1VrT5zD-78" style="edgeStyle=orthogonalEdgeStyle;rounded=0;orthogonalLoop=1;jettySize=auto;html=1;exitX=1;exitY=0.5;exitDx=0;exitDy=0;entryX=0;entryY=0.5;entryDx=0;entryDy=0;fontFamily=Roboto;fontSource=https%3A%2F%2Ffonts.googleapis.com%2Fcss%3Ffamily%3DRoboto;" edge="1" parent="1" source="jWws2KSP2f3LH1VrT5zD-12" target="jWws2KSP2f3LH1VrT5zD-43">
          <mxGeometry relative="1" as="geometry" />
        </mxCell>
        <mxCell id="jWws2KSP2f3LH1VrT5zD-12" value="Queue Worker" style="rounded=0;whiteSpace=wrap;html=1;fontFamily=Roboto;fontSource=https%3A%2F%2Ffonts.googleapis.com%2Fcss%3Ffamily%3DRoboto;" vertex="1" parent="1">
          <mxGeometry x="640" y="320" width="120" height="40" as="geometry" />
        </mxCell>
        <mxCell id="jWws2KSP2f3LH1VrT5zD-82" style="edgeStyle=orthogonalEdgeStyle;rounded=0;orthogonalLoop=1;jettySize=auto;html=1;exitX=1;exitY=0.5;exitDx=0;exitDy=0;entryX=0;entryY=0.5;entryDx=0;entryDy=0;fontFamily=Roboto;fontSource=https%3A%2F%2Ffonts.googleapis.com%2Fcss%3Ffamily%3DRoboto;" edge="1" parent="1" source="jWws2KSP2f3LH1VrT5zD-13" target="jWws2KSP2f3LH1VrT5zD-43">
          <mxGeometry relative="1" as="geometry" />
        </mxCell>
        <mxCell id="jWws2KSP2f3LH1VrT5zD-13" value="Queue Worker" style="rounded=0;whiteSpace=wrap;html=1;fontFamily=Roboto;fontSource=https%3A%2F%2Ffonts.googleapis.com%2Fcss%3Ffamily%3DRoboto;" vertex="1" parent="1">
          <mxGeometry x="640" y="440" width="120" height="40" as="geometry" />
        </mxCell>
        <mxCell id="jWws2KSP2f3LH1VrT5zD-80" style="edgeStyle=orthogonalEdgeStyle;rounded=0;orthogonalLoop=1;jettySize=auto;html=1;exitX=1;exitY=0.5;exitDx=0;exitDy=0;entryX=0;entryY=0.5;entryDx=0;entryDy=0;fontFamily=Roboto;fontSource=https%3A%2F%2Ffonts.googleapis.com%2Fcss%3Ffamily%3DRoboto;" edge="1" parent="1" source="jWws2KSP2f3LH1VrT5zD-14" target="jWws2KSP2f3LH1VrT5zD-43">
          <mxGeometry relative="1" as="geometry" />
        </mxCell>
        <mxCell id="jWws2KSP2f3LH1VrT5zD-14" value="Queue Worker" style="rounded=0;whiteSpace=wrap;html=1;fontFamily=Roboto;fontSource=https%3A%2F%2Ffonts.googleapis.com%2Fcss%3Ffamily%3DRoboto;" vertex="1" parent="1">
          <mxGeometry x="640" y="380" width="120" height="40" as="geometry" />
        </mxCell>
        <mxCell id="jWws2KSP2f3LH1VrT5zD-83" style="edgeStyle=orthogonalEdgeStyle;rounded=0;orthogonalLoop=1;jettySize=auto;html=1;exitX=1;exitY=0.5;exitDx=0;exitDy=0;entryX=0;entryY=0.5;entryDx=0;entryDy=0;fontFamily=Roboto;fontSource=https%3A%2F%2Ffonts.googleapis.com%2Fcss%3Ffamily%3DRoboto;" edge="1" parent="1" source="jWws2KSP2f3LH1VrT5zD-16" target="jWws2KSP2f3LH1VrT5zD-43">
          <mxGeometry relative="1" as="geometry">
            <mxPoint x="800" y="280" as="targetPoint" />
          </mxGeometry>
        </mxCell>
        <mxCell id="jWws2KSP2f3LH1VrT5zD-16" value="Queue Worker" style="rounded=0;whiteSpace=wrap;html=1;fontFamily=Roboto;fontSource=https%3A%2F%2Ffonts.googleapis.com%2Fcss%3Ffamily%3DRoboto;" vertex="1" parent="1">
          <mxGeometry x="640" y="500" width="120" height="40" as="geometry" />
        </mxCell>
        <mxCell id="jWws2KSP2f3LH1VrT5zD-28" style="edgeStyle=orthogonalEdgeStyle;rounded=0;orthogonalLoop=1;jettySize=auto;html=1;exitX=1;exitY=0.5;exitDx=0;exitDy=0;entryX=0;entryY=0.5;entryDx=0;entryDy=0;fontFamily=Roboto;fontSource=https%3A%2F%2Ffonts.googleapis.com%2Fcss%3Ffamily%3DRoboto;" edge="1" parent="1" source="jWws2KSP2f3LH1VrT5zD-1" target="jWws2KSP2f3LH1VrT5zD-3">
          <mxGeometry relative="1" as="geometry" />
        </mxCell>
        <mxCell id="jWws2KSP2f3LH1VrT5zD-63" style="edgeStyle=orthogonalEdgeStyle;rounded=0;orthogonalLoop=1;jettySize=auto;html=1;exitX=1;exitY=0.5;exitDx=0;exitDy=0;fontFamily=Roboto;fontSource=https%3A%2F%2Ffonts.googleapis.com%2Fcss%3Ffamily%3DRoboto;" edge="1" parent="1" source="jWws2KSP2f3LH1VrT5zD-42" target="jWws2KSP2f3LH1VrT5zD-62">
          <mxGeometry relative="1" as="geometry" />
        </mxCell>
        <mxCell id="jWws2KSP2f3LH1VrT5zD-42" value="Output Delivery" style="rounded=0;whiteSpace=wrap;html=1;fontFamily=Roboto;fontSource=https%3A%2F%2Ffonts.googleapis.com%2Fcss%3Ffamily%3DRoboto;" vertex="1" parent="1">
          <mxGeometry x="950" y="250" width="120" height="60" as="geometry" />
        </mxCell>
        <mxCell id="jWws2KSP2f3LH1VrT5zD-61" style="edgeStyle=orthogonalEdgeStyle;rounded=0;orthogonalLoop=1;jettySize=auto;html=1;exitX=1;exitY=0.5;exitDx=0;exitDy=0;fontFamily=Roboto;fontSource=https%3A%2F%2Ffonts.googleapis.com%2Fcss%3Ffamily%3DRoboto;" edge="1" parent="1" source="jWws2KSP2f3LH1VrT5zD-43" target="jWws2KSP2f3LH1VrT5zD-42">
          <mxGeometry relative="1" as="geometry" />
        </mxCell>
        <mxCell id="jWws2KSP2f3LH1VrT5zD-43" value="Output Compiler" style="rounded=0;whiteSpace=wrap;html=1;fontFamily=Roboto;fontSource=https%3A%2F%2Ffonts.googleapis.com%2Fcss%3Ffamily%3DRoboto;" vertex="1" parent="1">
          <mxGeometry x="800" y="250" width="120" height="60" as="geometry" />
        </mxCell>
        <mxCell id="jWws2KSP2f3LH1VrT5zD-62" value="User Output" style="rounded=0;whiteSpace=wrap;html=1;fontFamily=Roboto;fontSource=https%3A%2F%2Ffonts.googleapis.com%2Fcss%3Ffamily%3DRoboto;" vertex="1" parent="1">
          <mxGeometry x="1110" y="250" width="120" height="60" as="geometry" />
        </mxCell>
        <mxCell id="jWws2KSP2f3LH1VrT5zD-64" value="Divide set of images&amp;nbsp; among available machines." style="text;html=1;strokeColor=none;fillColor=none;align=center;verticalAlign=middle;whiteSpace=wrap;rounded=0;fontFamily=Roboto;fontSource=https%3A%2F%2Ffonts.googleapis.com%2Fcss%3Ffamily%3DRoboto;" vertex="1" parent="1">
          <mxGeometry x="320" y="310" width="120" height="50" as="geometry" />
        </mxCell>
        <mxCell id="jWws2KSP2f3LH1VrT5zD-67" value="Execute work on available threads." style="text;html=1;strokeColor=none;fillColor=none;align=center;verticalAlign=middle;whiteSpace=wrap;rounded=0;fontFamily=Roboto;fontSource=https%3A%2F%2Ffonts.googleapis.com%2Fcss%3Ffamily%3DRoboto;" vertex="1" parent="1">
          <mxGeometry x="480" y="490" width="120" height="50" as="geometry" />
        </mxCell>
        <mxCell id="jWws2KSP2f3LH1VrT5zD-68" value="Runs work on every image in Queue" style="text;html=1;strokeColor=none;fillColor=none;align=center;verticalAlign=middle;whiteSpace=wrap;rounded=0;fontFamily=Roboto;fontSource=https%3A%2F%2Ffonts.googleapis.com%2Fcss%3Ffamily%3DRoboto;" vertex="1" parent="1">
          <mxGeometry x="640" y="540" width="120" height="50" as="geometry" />
        </mxCell>
        <mxCell id="jWws2KSP2f3LH1VrT5zD-70" value="Collects processed images (+ metadata) &amp;amp; coordinates delivery&amp;nbsp;" style="text;html=1;strokeColor=none;fillColor=none;align=center;verticalAlign=middle;whiteSpace=wrap;rounded=0;fontFamily=Roboto;fontSource=https%3A%2F%2Ffonts.googleapis.com%2Fcss%3Ffamily%3DRoboto;" vertex="1" parent="1">
          <mxGeometry x="790" y="310" width="140" height="55" as="geometry" />
        </mxCell>
        <mxCell id="jWws2KSP2f3LH1VrT5zD-71" value="Delivers processed images to users" style="text;html=1;strokeColor=none;fillColor=none;align=center;verticalAlign=middle;whiteSpace=wrap;rounded=0;fontFamily=Roboto;fontSource=https%3A%2F%2Ffonts.googleapis.com%2Fcss%3Ffamily%3DRoboto;" vertex="1" parent="1">
          <mxGeometry x="960" y="310" width="120" height="50" as="geometry" />
        </mxCell>
        <mxCell id="jWws2KSP2f3LH1VrT5zD-87" value="Coordination and Queue" style="rounded=0;whiteSpace=wrap;html=1;fillColor=#99CCFF;align=left;verticalAlign=top;spacingTop=4;spacingLeft=4;fontSize=18;fontFamily=Roboto;fontSource=https%3A%2F%2Ffonts.googleapis.com%2Fcss%3Ffamily%3DRoboto;fontStyle=1" vertex="1" parent="1">
          <mxGeometry x="300" y="610" width="950" height="310" as="geometry" />
        </mxCell>
        <mxCell id="jWws2KSP2f3LH1VrT5zD-92" style="edgeStyle=orthogonalEdgeStyle;rounded=0;orthogonalLoop=1;jettySize=auto;html=1;exitX=1;exitY=0.5;exitDx=0;exitDy=0;entryX=0;entryY=0.5;entryDx=0;entryDy=0;" edge="1" parent="1" source="jWws2KSP2f3LH1VrT5zD-88" target="jWws2KSP2f3LH1VrT5zD-91">
          <mxGeometry relative="1" as="geometry" />
        </mxCell>
        <mxCell id="jWws2KSP2f3LH1VrT5zD-93" style="edgeStyle=orthogonalEdgeStyle;rounded=0;orthogonalLoop=1;jettySize=auto;html=1;exitX=1;exitY=0.5;exitDx=0;exitDy=0;entryX=0;entryY=0.5;entryDx=0;entryDy=0;" edge="1" parent="1" source="jWws2KSP2f3LH1VrT5zD-88" target="jWws2KSP2f3LH1VrT5zD-89">
          <mxGeometry relative="1" as="geometry" />
        </mxCell>
        <mxCell id="jWws2KSP2f3LH1VrT5zD-94" style="edgeStyle=orthogonalEdgeStyle;rounded=0;orthogonalLoop=1;jettySize=auto;html=1;exitX=1;exitY=0.5;exitDx=0;exitDy=0;entryX=0;entryY=0.5;entryDx=0;entryDy=0;" edge="1" parent="1" source="jWws2KSP2f3LH1VrT5zD-88" target="jWws2KSP2f3LH1VrT5zD-90">
          <mxGeometry relative="1" as="geometry" />
        </mxCell>
        <mxCell id="jWws2KSP2f3LH1VrT5zD-88" value="Get x from &lt;br&gt;Pending Queue" style="rounded=0;whiteSpace=wrap;html=1;" vertex="1" parent="1">
          <mxGeometry x="320" y="750" width="120" height="60" as="geometry" />
        </mxCell>
        <mxCell id="jWws2KSP2f3LH1VrT5zD-105" style="edgeStyle=orthogonalEdgeStyle;rounded=0;orthogonalLoop=1;jettySize=auto;html=1;exitX=1;exitY=0.5;exitDx=0;exitDy=0;entryX=0;entryY=0.5;entryDx=0;entryDy=0;" edge="1" parent="1" source="jWws2KSP2f3LH1VrT5zD-89" target="jWws2KSP2f3LH1VrT5zD-101">
          <mxGeometry relative="1" as="geometry" />
        </mxCell>
        <mxCell id="jWws2KSP2f3LH1VrT5zD-89" value="Thread ...&lt;br&gt;Image u" style="rounded=0;whiteSpace=wrap;html=1;" vertex="1" parent="1">
          <mxGeometry x="480" y="750" width="120" height="60" as="geometry" />
        </mxCell>
        <mxCell id="jWws2KSP2f3LH1VrT5zD-106" style="edgeStyle=orthogonalEdgeStyle;rounded=0;orthogonalLoop=1;jettySize=auto;html=1;exitX=1;exitY=0.5;exitDx=0;exitDy=0;entryX=0;entryY=0.5;entryDx=0;entryDy=0;" edge="1" parent="1" source="jWws2KSP2f3LH1VrT5zD-90" target="jWws2KSP2f3LH1VrT5zD-98">
          <mxGeometry relative="1" as="geometry" />
        </mxCell>
        <mxCell id="jWws2KSP2f3LH1VrT5zD-90" value="Thread t&lt;br&gt;Image z" style="rounded=0;whiteSpace=wrap;html=1;" vertex="1" parent="1">
          <mxGeometry x="480" y="840" width="120" height="60" as="geometry" />
        </mxCell>
        <mxCell id="jWws2KSP2f3LH1VrT5zD-104" style="edgeStyle=orthogonalEdgeStyle;rounded=0;orthogonalLoop=1;jettySize=auto;html=1;exitX=1;exitY=0.5;exitDx=0;exitDy=0;" edge="1" parent="1" source="jWws2KSP2f3LH1VrT5zD-91" target="jWws2KSP2f3LH1VrT5zD-95">
          <mxGeometry relative="1" as="geometry" />
        </mxCell>
        <mxCell id="jWws2KSP2f3LH1VrT5zD-91" value="Thread 1&lt;br&gt;Image a" style="rounded=0;whiteSpace=wrap;html=1;" vertex="1" parent="1">
          <mxGeometry x="480" y="660" width="120" height="60" as="geometry" />
        </mxCell>
        <mxCell id="jWws2KSP2f3LH1VrT5zD-107" style="edgeStyle=orthogonalEdgeStyle;rounded=0;orthogonalLoop=1;jettySize=auto;html=1;exitX=1;exitY=0.5;exitDx=0;exitDy=0;" edge="1" parent="1" source="jWws2KSP2f3LH1VrT5zD-95" target="jWws2KSP2f3LH1VrT5zD-96">
          <mxGeometry relative="1" as="geometry" />
        </mxCell>
        <mxCell id="jWws2KSP2f3LH1VrT5zD-95" value="Brightness &amp;amp; &lt;br&gt;Contrast" style="rounded=0;whiteSpace=wrap;html=1;" vertex="1" parent="1">
          <mxGeometry x="640" y="660" width="120" height="60" as="geometry" />
        </mxCell>
        <mxCell id="jWws2KSP2f3LH1VrT5zD-110" style="edgeStyle=orthogonalEdgeStyle;rounded=0;orthogonalLoop=1;jettySize=auto;html=1;exitX=1;exitY=0.5;exitDx=0;exitDy=0;entryX=0;entryY=0.5;entryDx=0;entryDy=0;" edge="1" parent="1" source="jWws2KSP2f3LH1VrT5zD-96" target="jWws2KSP2f3LH1VrT5zD-97">
          <mxGeometry relative="1" as="geometry" />
        </mxCell>
        <mxCell id="jWws2KSP2f3LH1VrT5zD-96" value="Sharpness" style="rounded=0;whiteSpace=wrap;html=1;" vertex="1" parent="1">
          <mxGeometry x="800" y="660" width="120" height="60" as="geometry" />
        </mxCell>
        <mxCell id="jWws2KSP2f3LH1VrT5zD-116" style="edgeStyle=orthogonalEdgeStyle;rounded=0;orthogonalLoop=1;jettySize=auto;html=1;exitX=1;exitY=0.5;exitDx=0;exitDy=0;entryX=0;entryY=0.5;entryDx=0;entryDy=0;" edge="1" parent="1" source="jWws2KSP2f3LH1VrT5zD-97" target="jWws2KSP2f3LH1VrT5zD-113">
          <mxGeometry relative="1" as="geometry" />
        </mxCell>
        <mxCell id="jWws2KSP2f3LH1VrT5zD-97" value="Output Image&lt;br&gt;Image a" style="rounded=0;whiteSpace=wrap;html=1;" vertex="1" parent="1">
          <mxGeometry x="960" y="660" width="120" height="60" as="geometry" />
        </mxCell>
        <mxCell id="jWws2KSP2f3LH1VrT5zD-109" style="edgeStyle=orthogonalEdgeStyle;rounded=0;orthogonalLoop=1;jettySize=auto;html=1;exitX=1;exitY=0.5;exitDx=0;exitDy=0;" edge="1" parent="1" source="jWws2KSP2f3LH1VrT5zD-98" target="jWws2KSP2f3LH1VrT5zD-99">
          <mxGeometry relative="1" as="geometry" />
        </mxCell>
        <mxCell id="jWws2KSP2f3LH1VrT5zD-98" value="Brightness &amp;amp; &lt;br&gt;Contrast" style="rounded=0;whiteSpace=wrap;html=1;" vertex="1" parent="1">
          <mxGeometry x="640" y="840" width="120" height="60" as="geometry" />
        </mxCell>
        <mxCell id="jWws2KSP2f3LH1VrT5zD-112" style="edgeStyle=orthogonalEdgeStyle;rounded=0;orthogonalLoop=1;jettySize=auto;html=1;exitX=1;exitY=0.5;exitDx=0;exitDy=0;entryX=0;entryY=0.5;entryDx=0;entryDy=0;" edge="1" parent="1" source="jWws2KSP2f3LH1VrT5zD-99" target="jWws2KSP2f3LH1VrT5zD-100">
          <mxGeometry relative="1" as="geometry" />
        </mxCell>
        <mxCell id="jWws2KSP2f3LH1VrT5zD-99" value="Sharpness" style="rounded=0;whiteSpace=wrap;html=1;" vertex="1" parent="1">
          <mxGeometry x="800" y="840" width="120" height="60" as="geometry" />
        </mxCell>
        <mxCell id="jWws2KSP2f3LH1VrT5zD-118" style="edgeStyle=orthogonalEdgeStyle;rounded=0;orthogonalLoop=1;jettySize=auto;html=1;exitX=1;exitY=0.5;exitDx=0;exitDy=0;entryX=0;entryY=0.5;entryDx=0;entryDy=0;" edge="1" parent="1" source="jWws2KSP2f3LH1VrT5zD-100" target="jWws2KSP2f3LH1VrT5zD-114">
          <mxGeometry relative="1" as="geometry" />
        </mxCell>
        <mxCell id="jWws2KSP2f3LH1VrT5zD-100" value="Output Image&lt;br&gt;Image z" style="rounded=0;whiteSpace=wrap;html=1;" vertex="1" parent="1">
          <mxGeometry x="960" y="840" width="120" height="60" as="geometry" />
        </mxCell>
        <mxCell id="jWws2KSP2f3LH1VrT5zD-108" style="edgeStyle=orthogonalEdgeStyle;rounded=0;orthogonalLoop=1;jettySize=auto;html=1;exitX=1;exitY=0.5;exitDx=0;exitDy=0;" edge="1" parent="1" source="jWws2KSP2f3LH1VrT5zD-101" target="jWws2KSP2f3LH1VrT5zD-102">
          <mxGeometry relative="1" as="geometry" />
        </mxCell>
        <mxCell id="jWws2KSP2f3LH1VrT5zD-101" value="Brightness &amp;amp; &lt;br&gt;Contrast" style="rounded=0;whiteSpace=wrap;html=1;" vertex="1" parent="1">
          <mxGeometry x="640" y="750" width="120" height="60" as="geometry" />
        </mxCell>
        <mxCell id="jWws2KSP2f3LH1VrT5zD-111" style="edgeStyle=orthogonalEdgeStyle;rounded=0;orthogonalLoop=1;jettySize=auto;html=1;exitX=1;exitY=0.5;exitDx=0;exitDy=0;entryX=0;entryY=0.5;entryDx=0;entryDy=0;" edge="1" parent="1" source="jWws2KSP2f3LH1VrT5zD-102" target="jWws2KSP2f3LH1VrT5zD-103">
          <mxGeometry relative="1" as="geometry" />
        </mxCell>
        <mxCell id="jWws2KSP2f3LH1VrT5zD-102" value="Sharpness" style="rounded=0;whiteSpace=wrap;html=1;" vertex="1" parent="1">
          <mxGeometry x="800" y="750" width="120" height="60" as="geometry" />
        </mxCell>
        <mxCell id="jWws2KSP2f3LH1VrT5zD-117" style="edgeStyle=orthogonalEdgeStyle;rounded=0;orthogonalLoop=1;jettySize=auto;html=1;exitX=1;exitY=0.5;exitDx=0;exitDy=0;entryX=0;entryY=0.5;entryDx=0;entryDy=0;" edge="1" parent="1" source="jWws2KSP2f3LH1VrT5zD-103" target="jWws2KSP2f3LH1VrT5zD-115">
          <mxGeometry relative="1" as="geometry" />
        </mxCell>
        <mxCell id="jWws2KSP2f3LH1VrT5zD-103" value="Output Image&lt;br&gt;Image u" style="rounded=0;whiteSpace=wrap;html=1;" vertex="1" parent="1">
          <mxGeometry x="960" y="750" width="120" height="60" as="geometry" />
        </mxCell>
        <mxCell id="jWws2KSP2f3LH1VrT5zD-113" value="Put a to&lt;br style=&quot;border-color: var(--border-color);&quot;&gt;Finished Queue" style="rounded=0;whiteSpace=wrap;html=1;" vertex="1" parent="1">
          <mxGeometry x="1110" y="660" width="120" height="60" as="geometry" />
        </mxCell>
        <mxCell id="jWws2KSP2f3LH1VrT5zD-114" value="Put z to&lt;br style=&quot;border-color: var(--border-color);&quot;&gt;Finished Queue" style="rounded=0;whiteSpace=wrap;html=1;" vertex="1" parent="1">
          <mxGeometry x="1110" y="840" width="120" height="60" as="geometry" />
        </mxCell>
        <mxCell id="jWws2KSP2f3LH1VrT5zD-115" value="Put u to&lt;br style=&quot;border-color: var(--border-color);&quot;&gt;Finished Queue" style="rounded=0;whiteSpace=wrap;html=1;" vertex="1" parent="1">
          <mxGeometry x="1110" y="750" width="120" height="60" as="geometry" />
        </mxCell>
      </root>
    </mxGraphModel>
  </diagram>
</mxfile>
